<svg xmlns="http://www.w3.org/2000/svg" viewBox="0 0 18 18"><path d="M15.36,2.64A9,9,0,1,0,2.64,15.36,9,9,0,1,0,15.36,2.64Zm1.15,5.64H13a13.38,13.38,0,0,0-2.35-6.64A7.56,7.56,0,0,1,16.51,8.27ZM6.46,9.73h5.09A11.93,11.93,0,0,1,9,16.15,11.93,11.93,0,0,1,6.46,9.73Zm0-1.45A11.93,11.93,0,0,1,9,1.85a11.93,11.93,0,0,1,2.54,6.43Zm.89-6.64A13.38,13.38,0,0,0,5,8.27H1.49A7.56,7.56,0,0,1,7.35,1.64ZM1.49,9.73H5a13.38,13.38,0,0,0,2.35,6.64A7.56,7.56,0,0,1,1.49,9.73Zm9.16,6.64A13.38,13.38,0,0,0,13,9.73h3.51A7.56,7.56,0,0,1,10.65,16.36Z" fill="#99ca3c"/></svg>