<svg xmlns="http://www.w3.org/2000/svg" viewBox="0 0 22 25"><path d="M11.88,22.58V13l8.36-4.68-.07,9.65ZM1.88,8.07,10.13,13v9.68l-8.36-5Zm9.25-6.19,8.24,4.88L11,11.44,2.78,6.57ZM22,6.76a.22.22,0,0,0,0-.06v0s0,0,0-.07,0,0,0,0l0-.06v0l0-.07v0a.59.59,0,0,0-.08-.14v0l0-.06v0l0,0,0,0-.05,0,0,0,0,0,0,0h0l-10-5.9a.89.89,0,0,0-.88,0L.59,5.78h0l0,0,0,0,0,0-.05,0,0,0,0,0,0,0L.32,6V6l0,.07h0l0,0v0l0,0,0,0v0a.1.1,0,0,0,0,0v.06a0,0,0,0,1,0,0v0h0s0,0,0,0v.08L0,18.11a.87.87,0,0,0,.43.76l10,6a.89.89,0,0,0,.45.12.86.86,0,0,0,.43-.11l10.12-5.67a.88.88,0,0,0,.45-.76L22,6.8Z"/></svg>