<?xml version="1.0" encoding="iso-8859-1"?>
<!-- Generator: Adobe Illustrator 19.0.0, SVG Export Plug-In . SVG Version: 6.00 Build 0)  -->
<svg version="1.1" id="Layer_1" xmlns="http://www.w3.org/2000/svg" xmlns:xlink="http://www.w3.org/1999/xlink" x="0px" y="0px"
	 viewBox="0 0 512 512" style="enable-background:new 0 0 512 512;" xml:space="preserve">
<g>
	<g>
		<path d="M437.019,74.981C388.667,26.629,324.38,0,256,0S123.333,26.63,74.981,74.981S0,187.62,0,256
			s26.629,132.667,74.981,181.019C123.332,485.371,187.62,512,256,512s132.667-26.629,181.019-74.981
			C485.371,388.667,512,324.38,512,256S485.371,123.332,437.019,74.981z M256,470.636C137.65,470.636,41.364,374.35,41.364,256
			S137.65,41.364,256,41.364S470.636,137.65,470.636,256S374.35,470.636,256,470.636z"/>
	</g>
</g>
<g>
	<g>
		<path d="M256,141.191c-11.422,0-20.682,9.26-20.682,20.682V256c0,11.423,9.26,20.682,20.682,20.682
			c11.423,0,20.682-9.259,20.682-20.682v-94.127C276.682,150.451,267.423,141.191,256,141.191z"/>
	</g>
</g>
<g>
	<g>
		<path d="M270.625,335.503c-3.852-3.852-9.183-6.059-14.625-6.059c-5.442,0-10.773,2.207-14.625,6.059
			c-3.852,3.851-6.058,9.182-6.058,14.624c0,5.442,2.206,10.774,6.058,14.625c3.852,3.852,9.174,6.058,14.625,6.058
			s10.773-2.205,14.625-6.058c3.852-3.851,6.058-9.183,6.058-14.625C276.682,344.685,274.475,339.353,270.625,335.503z"/>
	</g>
</g>
</svg>
