<svg xmlns="http://www.w3.org/2000/svg" viewBox="0 0 25 23"><path d="M12.5,1.72a2.83,2.83,0,0,1,2.84,2.8,2.84,2.84,0,0,1-5.68,0A2.83,2.83,0,0,1,12.5,1.72ZM23.25,15.78a1.71,1.71,0,1,1-1.71-1.69A1.71,1.71,0,0,1,23.25,15.78Zm-9,3.82a1.71,1.71,0,1,1-1.74-1.69h.07A1.7,1.7,0,0,1,14.21,19.6ZM3.46,17.47a1.69,1.69,0,1,1,1.71-1.69A1.71,1.71,0,0,1,3.46,17.47ZM9,7.48,4.86,12.66a3.48,3.48,0,0,0-1.39-.29,3.41,3.41,0,1,0,0,6.83,3.45,3.45,0,0,0,3.46-3.41,3.38,3.38,0,0,0-.7-2.06l4.16-5.18A4.54,4.54,0,0,0,11.62,9v7.32a3.46,3.46,0,1,0,1.75,0V9a4.56,4.56,0,0,0,1.19-.4l4.16,5.2a3.36,3.36,0,0,0-.67,2,3.47,3.47,0,1,0,2-3.11L16,7.51a4.48,4.48,0,0,0,1.14-3,4.59,4.59,0,0,0-9.18,0A4.46,4.46,0,0,0,9,7.48Z"/></svg>