<svg xmlns="http://www.w3.org/2000/svg" viewBox="0 0 26 25"><path d="M17.39,17.39v7.07a.54.54,0,0,1-.54.54H.54A.54.54,0,0,1,0,24.46V.54A.54.54,0,0,1,.54,0h16.3a.54.54,0,0,1,.54.54V7.61a.54.54,0,0,1-.54.54H15.76a.54.54,0,0,1-.54-.54V2.17h-13V22.83h13V17.39a.54.54,0,0,1,.54-.54h1.09A.54.54,0,0,1,17.39,17.39Z"/><path d="M25.84,12.68,21.23,8.07a.54.54,0,0,0-.77,0l-.77.77a.54.54,0,0,0,0,.77L22.06,12H9.16a.54.54,0,0,0-.54.54V13.6a.54.54,0,0,0,.54.54H22.07l-2.37,2.37a.54.54,0,0,0,0,.77l.77.77a.54.54,0,0,0,.77,0l4.61-4.61A.54.54,0,0,0,25.84,12.68Z"/></svg>