<svg xmlns="http://www.w3.org/2000/svg" viewBox="0 0 25 14.88"><path d="M12.33,13.16c-3.56,0-7-1.93-10.33-5.72,1.29-1.5,5.39-5.71,10.66-5.71,3.56,0,7,1.93,10.33,5.72C21.7,8.95,17.6,13.16,12.33,13.16Zm12.5-5.21a.86.86,0,0,0,0-1.05C21,2.32,16.94,0,12.66,0,5.41,0,.38,6.65.17,6.93A.86.86,0,0,0,.19,8c3.78,4.58,7.86,6.9,12.13,6.9C19.58,14.88,24.61,8.23,24.83,7.95ZM12.5,10.09a2.65,2.65,0,1,1,2.69-2.65A2.68,2.68,0,0,1,12.5,10.09Zm0-7A4.42,4.42,0,0,0,8.05,7.44a4.44,4.44,0,0,0,8.89,0A4.42,4.42,0,0,0,12.5,3.07Z"/></svg>