<svg xmlns="http://www.w3.org/2000/svg" viewBox="0 0 254 254"><title>visual</title><circle cx="127" cy="127" r="127" fill="#99ca3c"/><circle cx="127" cy="127" r="108.23" fill="#a5ce3c"/><circle cx="127" cy="127" r="88.88" fill="#afd23f"/><path d="M201.25,112a97.53,97.53,0,0,0-6.87-22.55c-1.19-2.72-2.23-5.63-4-8A93.7,93.7,0,0,0,172.15,62.5a67,67,0,0,0-26.52-12.61C124.74,46.21,94,42.59,94,42.59c-10-.43-16.87,2.82-22.65,10.18-1.88,2.39-2.18,4.52-.59,7.12A12.35,12.35,0,0,0,77,65.2a11.92,11.92,0,0,1,4.22,3.08c-1,1.21-2.17,2.33-3.08,3.6-2.55,3.53-5.36,6.93-7.42,10.72-3.8,7-7.17,14.15-10.7,21.25-2.71,5.47-5.23,11-6.46,17a59.12,59.12,0,0,0-.85,15.22,51.45,51.45,0,0,0,7.34,24.49c6.66,9.89,20.76,22.66,20.76,22.66,12.89,9.89,27.66,14.53,43.76,15.24A134,134,0,0,0,148,197.12c8.2-1.07,16.15-3,23.55-6.84,5.18-2.67,10-5.72,13.66-10.46A137.6,137.6,0,0,0,191.57,167c.4-1.39.87-2.77,1.36-4.14s1-2.55,1.65-4.09L200,143.61c.28-1,.6-2,.85-3C203.26,131.13,202.92,121.56,201.25,112Z"/><path d="M201.25,112a97.53,97.53,0,0,0-6.87-22.55c-1.19-2.72-2.23-5.63-4-8A93.7,93.7,0,0,0,172.15,62.5a67,67,0,0,0-26.52-12.61C124.74,46.21,94,42.59,94,42.59c-10-.43-16.87,2.82-22.65,10.18-1.88,2.39-2.18,4.52-.59,7.12A12.35,12.35,0,0,0,77,65.2a11.92,11.92,0,0,1,4.22,3.08c-1,1.21-2.17,2.33-3.08,3.6-2.55,3.53-5.36,6.93-7.42,10.72-3.8,7-7.17,14.15-10.7,21.25-2.71,5.47-5.23,11-6.46,17a59.12,59.12,0,0,0-.85,15.22,51.45,51.45,0,0,0,7.34,24.49c6.66,9.89,20.76,22.66,20.76,22.66,12.89,9.89,27.66,14.53,43.76,15.24A134,134,0,0,0,148,197.12c8.2-1.07,16.15-3,23.55-6.84,5.18-2.67,10-5.72,13.66-10.46A137.6,137.6,0,0,0,191.57,167c.4-1.39.87-2.77,1.36-4.14s1-2.55,1.65-4.09L200,143.61c.28-1,.6-2,.85-3C203.26,131.13,202.92,121.56,201.25,112ZM128,134.12c10.36-2.36,20.7-4.81,31.11-7.18a1.67,1.67,0,0,1,1.38.38c5.56,6.77,8.12,14.32,5.51,23-2.16,7.15-8.24,11.47-17.19,11.46-6.55-.3-12.62-4.16-17.27-10.47a25.66,25.66,0,0,1-5-15.26A1.58,1.58,0,0,1,128,134.12ZM87.33,138a25.49,25.49,0,0,1,6-11,2,2,0,0,1,1.58-.55c10.19,2.63,30.37,6.46,30.9,8.15h0a15.86,15.86,0,0,1,.58,4.22,20,20,0,0,1-3.76,11.6,25.51,25.51,0,0,1-12.7,10.31c-7.83,2.82-15.74.66-20.07-5.57C86.18,149.91,85.78,144,87.33,138Zm77,41.94a2.23,2.23,0,0,1-.82.53c-9,3.6-18.44,7.38-28.1,8.54-8.29,1.44-16.92-.31-25.52-.76-19.4-1-25.33-18.63-25.33-20.35s9.17-.92,13.57-1.59q1.54-.23,3.07-.49l.92-.17,2.14-.39,1.15-.24,1.88-.4,1.24-.32c.58-.15,1.16-.29,1.75-.45s.85-.26,1.28-.39,1.12-.33,1.68-.51.86-.31,1.29-.47,1.08-.38,1.62-.59.86-.37,1.29-.56l1.56-.68c.55-.24.85-.44,1.28-.66s1-.5,1.49-.78.91-.54,1.35-.84h.05c.51-.34,1-.71,1.5-1.08h0l.22-.15.29-.2.22-.11.29-.15.24-.08.28-.09h1.05l.33.05h.21l.44.13h.11a5.57,5.57,0,0,1,.56.24,133.41,133.41,0,0,0,21.66,8.79c6,1.76,12.69,2.06,19,4.81,1.26.76,1.21,5.22-5.22,9.44Z"/><path d="M128,134.12c10.36-2.36,20.7-4.81,31.11-7.18a1.67,1.67,0,0,1,1.38.38c5.56,6.77,8.12,14.32,5.51,23-2.16,7.15-8.24,11.47-17.19,11.46-6.55-.3-12.62-4.16-17.27-10.47a25.66,25.66,0,0,1-5-15.26A1.58,1.58,0,0,1,128,134.12Z" fill="#f1f2f2"/><path d="M87.33,138a25.49,25.49,0,0,1,6-11,2,2,0,0,1,1.58-.55c10.19,2.63,30.37,6.46,30.9,8.15h0a15.86,15.86,0,0,1,.58,4.22,20,20,0,0,1-3.76,11.6,25.51,25.51,0,0,1-12.7,10.31c-7.83,2.82-15.74.66-20.07-5.57C86.18,149.91,85.78,144,87.33,138Z" fill="#f1f2f2"/><path d="M164.35,180a2.23,2.23,0,0,1-.82.53c-9,3.6-18.44,7.38-28.1,8.54-8.29,1.44-16.92-.31-25.52-.76-19.4-1-25.33-18.63-25.33-20.35s9.17-.92,13.57-1.59q1.54-.23,3.07-.49l.92-.17,2.14-.39,1.15-.24,1.88-.4,1.24-.32c.58-.15,1.16-.29,1.75-.45s.85-.26,1.28-.39,1.12-.33,1.68-.51.86-.31,1.29-.47,1.08-.38,1.62-.59.86-.37,1.29-.56l1.56-.68c.55-.24.85-.44,1.28-.66s1-.5,1.49-.78.91-.54,1.35-.84h.05c.51-.34,1-.71,1.5-1.08h0l.22-.15.29-.2.22-.11.29-.15.24-.08.28-.09h1.05l.33.05h.21l.44.13h.11a5.57,5.57,0,0,1,.56.24,133.41,133.41,0,0,0,21.66,8.79c6,1.76,12.69,2.06,19,4.81C170.83,171.3,170.78,175.76,164.35,180Z" fill="#f1f2f2"/><path d="M135.85,177.84a3.74,3.74,0,0,0-.9.3,14.07,14.07,0,0,1-6.71.89c-2.88-.19-7.5-.61-6.69-.28a30.32,30.32,0,0,0,10.61,1.08,19.65,19.65,0,0,0,4.09-1C136.46,178.71,136.13,177.81,135.85,177.84Z"/><path d="M113.54,137.19a2.14,2.14,0,0,0,2.14-2.13s0,0,0-.07a2,2,0,0,0-2-2h-.15a2,2,0,0,0-2,2s0,.05,0,.08A2.07,2.07,0,0,0,113.54,137.19Z"/><path d="M139,137a2,2,0,0,0,2-2s0-.07,0-.1a2.07,2.07,0,0,0-2-2.08h0a2.13,2.13,0,0,0-2.12,2.13s0,.06,0,.09a2,2,0,0,0,2,2Z"/><path d="M154,98.28l-8.21-8.19h0l-8.25-8.23a.57.57,0,0,0-.8,0l-7.84,7.82-7.85-7.83a.57.57,0,0,0-.8,0L103.75,98.28a.56.56,0,0,0,0,.79h0l3,3h0l5.28,5.27a.57.57,0,0,0,.8,0l7.85-7.83,7.85,7.83a.58.58,0,0,0,.81,0l7.85-7.83,7.85,7.83a.57.57,0,0,0,.8,0l8.25-8.23a.57.57,0,0,0,0-.8Z" fill="#8dc63f"/></svg>