<svg xmlns="http://www.w3.org/2000/svg" viewBox="0 0 205 205"><title>networking</title><path d="M201.9,87.88a4,4,0,1,0-7.32,3.25,28.22,28.22,0,0,1-.83,24.4,14,14,0,0,0-9.38-6.49l-1-.18a14.83,14.83,0,0,0,.44-3.59V98.2a14.87,14.87,0,1,0-29.73,0v7.07a14.83,14.83,0,0,0,.44,3.59l-1,.18a14,14,0,0,0-9.4,6.53,28,28,0,0,1,35.35-39,4,4,0,0,0,3-7.42A36.14,36.14,0,0,0,173,66.69V33.15a16.81,16.81,0,1,0-8,0V66.68a36,36,0,0,0-25.9,15.64l-69-34.49A36,36,0,0,0,72,39H83.15a16.82,16.82,0,1,0,0-8H71.72a36,36,0,1,0-48.63,38.7A4,4,0,0,0,26,62.2a27.75,27.75,0,0,1-8.73-5.41v-.47a6,6,0,0,1,4.86-5.86L26,49.74a14.83,14.83,0,0,0,20.14,0l3.87.72a6,6,0,0,1,4.86,5.86v.51a28.09,28.09,0,0,1-7.9,5,4,4,0,0,0,3.12,7.37A36,36,0,0,0,66.66,55.06l68.74,34.35a36.08,36.08,0,0,0-2.23,9.09H106a16.82,16.82,0,1,0,0,8h27.16a36.12,36.12,0,0,0,1.68,7.59l-69,34.63a36,36,0,0,0-23.5-15.26c-.77-.14-1.54-.24-2.32-.33v-14.3a16.81,16.81,0,1,0-8,0v14.3A35.94,35.94,0,0,0,21.43,136a4,4,0,0,0,3.25,7.32A28,28,0,0,1,60.85,182a14,14,0,0,0-9.4-6.53l-1-.18a14.84,14.84,0,0,0,.44-3.59v-7.07a14.86,14.86,0,1,0-29.73,0v7.07a14.84,14.84,0,0,0,.44,3.59l-1,.18A14,14,0,0,0,11.24,182a28,28,0,0,1-1.16-23.59,4,4,0,1,0-7.42-3,36,36,0,1,0,69.28,16.48H86.23a16.82,16.82,0,1,0,0-8H71.7a36.07,36.07,0,0,0-2.11-8l68.67-34.47a35.9,35.9,0,0,0,26.77,17v33.55a16.81,16.81,0,1,0,8,0V138.29a36,36,0,0,0,28.87-50.4M160.22,16.82A8.81,8.81,0,1,1,169,25.63,8.82,8.82,0,0,1,160.22,16.82ZM99.48,26.16A8.81,8.81,0,1,1,90.67,35,8.82,8.82,0,0,1,99.48,26.16ZM36,45.67a6.87,6.87,0,0,1-6.86-6.86V31.75a6.86,6.86,0,1,1,13.72,0v7.07A6.87,6.87,0,0,1,36,45.67Zm15.41-3.09-1-.18a14.83,14.83,0,0,0,.44-3.59V31.75a14.86,14.86,0,1,0-29.73,0v7.07a14.85,14.85,0,0,0,.44,3.59l-1,.18a14,14,0,0,0-9.37,6.47,28,28,0,1,1,49.58,0A14,14,0,0,0,51.46,42.59ZM27.24,102.51A8.81,8.81,0,1,1,36,111.32,8.82,8.82,0,0,1,27.24,102.51Zm1.94,62.14a6.86,6.86,0,1,1,13.72,0v7.07a6.86,6.86,0,1,1-13.72,0ZM17.23,189.72v-.51a6,6,0,0,1,4.86-5.86l3.87-.72a14.83,14.83,0,0,0,20.14,0l3.87.72a6,6,0,0,1,4.86,5.86v.53A28.06,28.06,0,0,1,17.23,189.72Zm85.32-30.66a8.81,8.81,0,1,1-8.81,8.81A8.82,8.82,0,0,1,102.56,159.06ZM162.11,98.2a6.86,6.86,0,1,1,13.72,0v7.07a6.86,6.86,0,1,1-13.72,0ZM155,116.91l3.87-.72a14.83,14.83,0,0,0,20.14,0l3.87.72a6,6,0,0,1,4.86,5.86v.51a28.06,28.06,0,0,1-37.61,0v-.53A6,6,0,0,1,155,116.91Zm-65.34-5.59a8.81,8.81,0,1,1,8.81-8.81A8.82,8.82,0,0,1,89.69,111.32Zm88.15,76.87a8.81,8.81,0,1,1-8.81-8.81A8.82,8.82,0,0,1,177.84,188.18Zm-167.27-39,0,0a4,4,0,1,1,2.84,1.19,4,4,0,0,1-2.84-1.19m181-65.29A4,4,0,0,1,188.78,77l0,0a4,4,0,1,1,2.82,6.84M40,68.09a4,4,0,1,1-4-4,4,4,0,0,1,4,4v0" fill="#0b050c"/></svg>